<svg xmlns="http://www.w3.org/2000/svg" viewBox="0 0 190 100">
  <!-- 13 alternating red/white stripes -->
  <rect width="190" height="100" fill="#B32025"/>
  <g fill="#fff">
    <rect y="7.692" width="190" height="7.692"/>
    <rect y="23.077" width="190" height="7.692"/>
    <rect y="38.462" width="190" height="7.692"/>
    <rect y="53.846" width="190" height="7.692"/>
    <rect y="69.231" width="190" height="7.692"/>
    <rect y="84.615" width="190" height="7.692"/>
  </g>
  <!-- Blue canton -->
  <rect width="76" height="53.846" fill="#092f4d"/>
  <!-- 50 stars (5-pointed) -->
  <defs>
    <polygon id="s" points="0,-1.6 0.36,-0.49 1.52,-0.49 0.58,0.19 0.94,1.29 0,0.61 -0.94,1.29 -0.58,0.19 -1.52,-0.49 -0.36,-0.49" fill="#fff"/>
  </defs>
  <g>
    <!-- Row 1: 6 stars -->
    <use href="#s" transform="translate(6.33,5.38)"/>
    <use href="#s" transform="translate(19,5.38)"/>
    <use href="#s" transform="translate(31.67,5.38)"/>
    <use href="#s" transform="translate(44.33,5.38)"/>
    <use href="#s" transform="translate(57,5.38)"/>
    <use href="#s" transform="translate(69.67,5.38)"/>
    <!-- Row 2: 5 stars -->
    <use href="#s" transform="translate(12.67,10.77)"/>
    <use href="#s" transform="translate(25.33,10.77)"/>
    <use href="#s" transform="translate(38,10.77)"/>
    <use href="#s" transform="translate(50.67,10.77)"/>
    <use href="#s" transform="translate(63.33,10.77)"/>
    <!-- Row 3: 6 stars -->
    <use href="#s" transform="translate(6.33,16.15)"/>
    <use href="#s" transform="translate(19,16.15)"/>
    <use href="#s" transform="translate(31.67,16.15)"/>
    <use href="#s" transform="translate(44.33,16.15)"/>
    <use href="#s" transform="translate(57,16.15)"/>
    <use href="#s" transform="translate(69.67,16.15)"/>
    <!-- Row 4: 5 stars -->
    <use href="#s" transform="translate(12.67,21.54)"/>
    <use href="#s" transform="translate(25.33,21.54)"/>
    <use href="#s" transform="translate(38,21.54)"/>
    <use href="#s" transform="translate(50.67,21.54)"/>
    <use href="#s" transform="translate(63.33,21.54)"/>
    <!-- Row 5: 6 stars -->
    <use href="#s" transform="translate(6.33,26.92)"/>
    <use href="#s" transform="translate(19,26.92)"/>
    <use href="#s" transform="translate(31.67,26.92)"/>
    <use href="#s" transform="translate(44.33,26.92)"/>
    <use href="#s" transform="translate(57,26.92)"/>
    <use href="#s" transform="translate(69.67,26.92)"/>
    <!-- Row 6: 5 stars -->
    <use href="#s" transform="translate(12.67,32.31)"/>
    <use href="#s" transform="translate(25.33,32.31)"/>
    <use href="#s" transform="translate(38,32.31)"/>
    <use href="#s" transform="translate(50.67,32.31)"/>
    <use href="#s" transform="translate(63.33,32.31)"/>
    <!-- Row 7: 6 stars -->
    <use href="#s" transform="translate(6.33,37.69)"/>
    <use href="#s" transform="translate(19,37.69)"/>
    <use href="#s" transform="translate(31.67,37.69)"/>
    <use href="#s" transform="translate(44.33,37.69)"/>
    <use href="#s" transform="translate(57,37.69)"/>
    <use href="#s" transform="translate(69.67,37.69)"/>
    <!-- Row 8: 5 stars -->
    <use href="#s" transform="translate(12.67,43.08)"/>
    <use href="#s" transform="translate(25.33,43.08)"/>
    <use href="#s" transform="translate(38,43.08)"/>
    <use href="#s" transform="translate(50.67,43.08)"/>
    <use href="#s" transform="translate(63.33,43.08)"/>
    <!-- Row 9: 6 stars -->
    <use href="#s" transform="translate(6.33,48.46)"/>
    <use href="#s" transform="translate(19,48.46)"/>
    <use href="#s" transform="translate(31.67,48.46)"/>
    <use href="#s" transform="translate(44.33,48.46)"/>
    <use href="#s" transform="translate(57,48.46)"/>
    <use href="#s" transform="translate(69.67,48.46)"/>
  </g>
</svg>
