<svg version="1.1" viewBox="0 0 576 672" xmlns="http://www.w3.org/2000/svg">
  <defs>
    <clipPath clipPathUnits="userSpaceOnUse" id="cb1"><path d="M 84.1987,-104.02011 H 516.19871 V 399.97991 H 84.1987 Z"/></clipPath>
    <clipPath clipPathUnits="userSpaceOnUse" id="cb2"><path d="M 84.1987,-39.552601 H 516.19871 V 464.44741 H 84.1987 Z"/></clipPath>
    <clipPath clipPathUnits="userSpaceOnUse" id="cb3"><path d="M 87.080005,20.628398 H 519.08002 V 524.62841 H 87.080005 Z"/></clipPath>
    <clipPath clipPathUnits="userSpaceOnUse" id="cb4"><path d="M 87.080005,9.7937027 H 519.08002 V 513.79372 H 87.080005 Z"/></clipPath>
    <clipPath clipPathUnits="userSpaceOnUse" id="cb5"><path d="M 65.469802,80.387102 H 497.46981 V 584.38711 H 65.469802 Z"/></clipPath>
  </defs>
  <path d="m 0,0 c 23.826,7.168 47.841,14.607 72.034,22.331 73.322,23.406 143.924,48.02 211.78,73.474 C 221.242,60.211 149.22,25.018 67.712,-5.763 39.156,-16.547 11.257,-26.101 -15.848,-34.576 -10.565,-23.051 -5.282,-11.525 0,0" fill="#285493" fill-rule="nonzero" transform="matrix(1.3333333,0,0,-1.3333333,-112.26493,533.30653)" clip-path="url(#cb1)"/>
  <path d="M 0,0 C 68.643,23.793 144.836,54.676 225.467,95.085 323.712,144.322 407.194,197.003 476.145,246.356 416.925,199.116 347.898,149.405 268.687,100.848 172.834,42.088 81.805,-2.882 0.72,-37.458 0.48,-24.972 0.24,-12.486 0,0" fill="#567fa7" fill-rule="nonzero" transform="matrix(1.3333333,0,0,-1.3333333,-112.26493,619.2632)" clip-path="url(#cb2)"/>
  <path d="m 0,0 3.602,-48.983 c 90.662,23.473 190.857,54.479 297.5,95.835 112.802,43.744 212.591,91.225 298.942,137.585 -0.961,62.419 -1.921,124.839 -2.882,187.259 C 519.175,301.391 419.338,222.506 296.06,147.67 189.048,82.708 87.954,35.113 0,0" fill="#b31d23" fill-rule="nonzero" transform="matrix(1.3333333,0,0,-1.3333333,-116.10667,699.50453)" clip-path="url(#cb3)"/>
  <path d="m 0,0 3.602,-48.983 c 91.834,37.24 193.342,84.309 300.382,144.068 113.002,63.087 210.861,128.42 293.899,190.17 -0.24,28.814 -0.481,57.627 -0.721,86.441 C 519.175,301.391 419.338,222.506 296.06,147.67 189.048,82.708 87.954,35.113 0,0" fill="#ffffff" fill-rule="nonzero" transform="matrix(1.3333333,0,0,-1.3333333,-116.10667,685.05827)" clip-path="url(#cb4)"/>
  <path d="m 0,0 c 93.966,16.455 203.626,42.631 322.713,85 100.508,35.76 188.092,76.066 262.204,115.255 0.48,-19.45 0.96,-38.899 1.44,-58.348 C 512.786,107.487 425.322,72.55 324.874,43.22 201.182,7.105 88.639,-11.503 -5.763,-20.89 -3.842,-13.927 -1.921,-6.963 0,0" fill="#285493" fill-rule="nonzero" transform="matrix(1.3333333,0,0,-1.3333333,-87.293067,779.1828)" clip-path="url(#cb5)"/>
</svg>