<?xml version="1.0" encoding="UTF-8"?>
<svg id="Layer_1" data-name="Layer 1" xmlns="http://www.w3.org/2000/svg" viewBox="0 0 1368 288">
  <defs>
    <style>
      .cls-1 {
        fill: #b32025;
      }

      .cls-2 {
        fill: #fff;
      }

      .cls-3 {
        fill: #092f4d;
      }
    </style>
  </defs>
  <g>
    <path class="cls-3" d="M472.43,159.07v-9.23h-48.47v59.13h48.47v-18.31h-29.12v-20.09h56.89v40.82c0,10.37-6.23,20.57-23.06,20.57h-56.89c-15.65,0-23.9-8.26-23.9-22.03v-61.88c0-16.52,8.42-21.38,21.21-21.38h61.6c14.98,0,21.04,6.48,21.04,21.55v10.85h-27.77Z"/>
    <path class="cls-3" d="M523.94,231.97v-105.3h85.67c12.12,0,17,7.29,17,19.28v38.07c0,10.69-4.04,16.36-13.8,17.5l12.46,30.45h-28.28l-11.95-30.29h-32.82v30.29h-28.28ZM598.67,179.97v-29.81h-46.45v29.81h46.45Z"/>
    <path class="cls-3" d="M724.4,212.04h-45.28l-6.73,19.92h-28.95l36.86-105.3h43.09l36.52,105.3h-28.95l-6.56-19.92ZM686.2,190.98h31.14l-14.14-42.77h-2.69l-14.31,42.77Z"/>
    <path class="cls-3" d="M778.6,126.67h83.65c12.12,0,16.83,7.45,16.83,19.6v42.93c0,9.4-6.73,18.63-19.36,18.63h-52.85v24.14h-28.28v-105.3ZM851.14,186.28v-36.61h-44.27v36.61h44.27Z"/>
    <path class="cls-3" d="M900.63,126.67h28.28v42.12h50.16v-42.12h28.11v105.3h-28.11v-40.66h-50.16v40.66h-28.28v-105.3Z"/>
    <path class="cls-3" d="M1033.1,126.67h28.28v105.3h-28.28v-105.3Z"/>
    <path class="cls-3" d="M1190.64,189.52v21.87c0,10.37-6.06,20.57-22.89,20.57h-56.89c-15.65,0-23.9-8.26-23.9-22.03v-61.4c0-16.69,8.08-21.87,21.21-21.87h61.43c14.98,0,21.04,6.8,21.04,22.03v14.09h-27.94v-12.64h-47.8v58.32h47.8v-18.95h27.94Z"/>
    <path class="cls-3" d="M1315.87,211.55c0,12.64-8.08,20.41-22.38,20.41h-59.58c-11.44,0-21.71-5.67-21.71-19.44v-17.82h27.94v15.39h47.8v-14.26l-62.95-15.07c-9.76-2.43-12.79-7.45-12.79-17.82v-19.44c0-11.99,7.41-16.85,19.52-16.85h63.62c16.83,0,20.53,8.42,20.53,22.03v13.28h-27.94v-13.45h-47.8v12.64l63.12,15.07c10.27,2.43,12.62,6.97,12.62,19.11v16.2Z"/>
  </g>
  <g>
    <path class="cls-1" d="M142.67,114.15l-63.83,115.92h48.65c12.57,0,24.12-6.9,30.08-17.96l58.42-108.36,24.55-47.72H82.81l-30.68,47.72h140.62l-50.08,10.4Z"/>
    <path class="cls-1" d="M268.88,116.86l-4.97,8.12h80.02c12.31,0,22.28,10.44,22.28,23.31,0,22.53-19.27,42.92-43.92,57.68-24.66,14.77-54.69,23.9-76.23,23.9h-58.14c-9.49,0-15.58-10.09-11.16-18.49l6.76-12.83,69.34-131.58h.01c7-7.01,16.49-10.94,26.39-10.94h106.45s-11.54,18.78-11.54,18.78c-11.94,19.43-32.48,31.17-54.55,31.17h-31.78c-7.68,0-14.83,4.1-18.97,10.87Z"/>
    <path class="cls-2" d="M255.7,158.05c5.06-6.33,10.12-12.65,15.19-18.98,1.13,6.39,2.26,12.77,3.39,19.16l30.06.28-29.19,17.26c.41,8.16.81,16.31,1.22,24.47-6.42-4.6-12.84-9.2-19.26-13.8-8.79,4.21-17.58,8.42-26.37,12.63,4.78-7.86,9.57-15.72,14.35-23.58l-19.45-17.72,30.06.28Z"/>
  </g>
  <g>
    <path class="cls-1" d="M384.4,181.28c-1.6,8.62-4.77,18.05-10.35,27.89-4.37,7.67-9.65,14.56-15.4,20.7h21.33c1.3-3.17,2.42-6.44,3.34-9.85,3.97-14.54,3.42-27.74,1.08-38.74Z"/>
    <path class="cls-1" d="M377.84,167.17c.26-3.39.3-6.56.2-9.44-.54,1.92-1.14,3.78-1.78,5.6-4.39,12.64-10.73,22.92-16.92,30.94-3.4,4.42-7.13,8.6-11.09,12.57-.02,0-.02.01-.02.01-8.61,8.62-18.44,16.25-29.12,23.02h27.08c5.81-5.6,11.22-11.86,15.9-18.81,10.93-16.2,14.82-31.58,15.76-43.89Z"/>
  </g>
</svg>