<?xml version="1.0" encoding="UTF-8"?>
<svg id="Layer_1" data-name="Layer 1" xmlns="http://www.w3.org/2000/svg" viewBox="0 0 648 720">
  <defs>
    <style>
      .cls-1 {
        fill: #f9fbf9;
      }

      .cls-2 {
        fill: #b32025;
      }

      .cls-3 {
        fill: #fafbfc;
      }

      .cls-4 {
        fill: #fff;
      }

      .cls-5 {
        fill: #092f4d;
      }

      .cls-6 {
        fill: #ac1f29;
      }
    </style>
  </defs>
  <g>
    <path class="cls-6" d="M78.78,522.56c19.73,20.57,40.77,39.83,62.8,57.48,52.91,42.38,112.05,76.04,175.76,100.03l8.67,3.26,8.66-3.26c63.72-23.99,122.85-57.65,175.76-100.03,22.03-17.64,43.07-36.9,62.79-57.48H78.78ZM577.79,93.68l-123.02-27.89-123.02-27.88-5.44-1.23-.31.07-.32-.07-5.43,1.23-135.54,30.73-110.49,25.05-19.15,4.34v318.04h541.87V98.02l-19.15-4.34Z"/>
    <path class="cls-4" d="M555.63,522.56c-16.84,16.92-34.6,32.87-53.06,47.66-51.88,41.56-109.86,74.56-172.34,98.08l-4.23,1.59-4.24-1.59c-62.48-23.52-120.46-56.52-172.34-98.08-18.46-14.78-36.22-30.74-53.06-47.66h459.26Z"/>
    <polygon class="cls-4" points="584.36 108.06 584.36 416.05 67.65 416.05 67.65 108.06 325.69 49.56 326 49.63 326.32 49.56 584.36 108.06"/>
    <path class="cls-5" d="M538.54,522.56c-.29.29-.58.57-.88.86-12.89,12.41-27.06,24.99-42.6,37.43-61.62,49.37-122.21,78.57-169.06,96.21-46.86-17.63-107.44-46.84-169.06-96.21-15.89-12.73-30.35-25.6-43.48-38.29h425.08Z"/>
    <path class="cls-5" d="M572.35,117.65v298.4H79.65V117.65c82.01-18.59,164.03-37.18,246.03-55.77l.32.07.31-.07c82.01,18.59,164.02,37.18,246.03,55.77Z"/>
    <path class="cls-2" d="M542.01,277.64s-.02.03-.02.05c-.02.04-.03.08-.05.13.02-.04.04-.08.05-.13-1.05,1.83-32.67,60.74-73.81,81.57-13.59,6.88-29.4,12.7-29.4,12.7-20.24,7.43-36.22,10.74-39.39,11.38-33.94,6.86-61.12,4.27-71.49,3.27-26.17-2.5-37.71-7.81-46.38-14.66-8.4-6.64-13.52-14.24-16.53-19.66-4.96,7.2-13.34,17.64-26.25,26.75-15.84,11.17-31.25,14.7-61.43,21.3-38.98,8.53-57.06,12.47-70.34,15.35,1.09.12,2.19.24,3.27.35h364.85c11.82-7.4,41.12-27.83,57.27-66.43,12.7-30.32,11.39-57.82,9.66-71.98Z"/>
    <path class="cls-4" d="M364.85,416.05h79.55c31.79-15.29,63.86-39.71,82.45-78.65,6.65-13.96,13.49-33.76,15.16-59.76l-.02.05c-.03.09-.06.17-.1.25-7.36,17.11-21.38,43.5-47.34,66.93-17.35,15.65-36.56,26.7-63.84,37.35-63.74,24.87-132.28,31.88-176.72,33.83h110.87Z"/>
    <path class="cls-3" d="M465.94,522.56c-.09.02-.18.05-.27.07h-71.31c.08-.02.16-.05.23-.07h-45.28c-.09.02-.19.05-.29.07h-68.21c.11-.02.21-.05.32-.07h-128.25c2.17,2.39,4.48,4.83,6.92,7.27,2.33,2.33,4.64,4.53,6.94,6.63,3.4,3,8.23,7.15,14.18,11.88,7.68,6.1,19.04,14.42,42.77,29.23,20.58,12.83,39.35,24.54,66.26,36.45,10.39,4.6,19.14,7.97,25.04,10.14,42.15-34.24,102.24-72.37,180.49-92.66,14.83-3.85,29.23-6.77,43.06-8.94h5.12-77.72Z"/>
    <g>
      <path class="cls-6" d="M348.76,522.56c-44.44,10.17-93.39,29.38-131.56,50.93-19.63-12.46-29.28-19.59-36.53-25.35,30.66-9.3,61.67-17.34,93.07-24.18,1.05-2.43,71.71-1.1,75.02-1.4Z"/>
      <path class="cls-6" d="M465.94,522.56c-63.59,13.94-146.59,57.4-183.98,87.76-9.76-4.68-20.25-9.93-29.74-15.45,30.58-24.57,86.71-57.31,142.04-72.31,0,0,71.68,0,71.68,0Z"/>
      <path class="cls-6" d="M348.46,522.63c-44.34,10.18-93.19,29.36-131.26,50.85-19.63-12.46-29.28-19.59-36.53-25.35,33.07-9.84,66.54-18.94,100.47-25.58-.11.02-.21.05-.32.07h67.65Z"/>
      <path class="cls-6" d="M465.67,522.63c-63.53,13.97-146.38,57.39-183.71,87.69-9.76-4.68-20.25-9.93-29.74-15.45,30.62-24.52,86.98-57.64,142.38-72.31-.08.02-.16.05-.24.07h71.31Z"/>
    </g>
    <g>
      <path class="cls-4" d="M356.78,168.36l-37.62,58.5-87.76,136.51c-2.84,4.42-7.22,7.64-12.29,9.04l-91.5,25.28,101.64-158.09,61.4-12.75H118.27l37.62-58.5h200.89Z"/>
      <path class="cls-4" d="M508.95,276.41c0,26.39-23.63,50.28-53.85,67.56-30.24,17.3-67.06,27.99-93.45,27.99h-49.54c-15.2,0-27.53-12.32-27.53-27.53h0c0-3.64.18-7.64.66-11.94h0c.54-4.78,1.94-9.42,4.14-13.7,11.94-23.23,23.88-46.46,35.82-69.69l14.23-22.23,24.39-38.09c8.14-12.72,22.21-20.41,37.31-20.41h131.72l-14.14,21.99c-14.63,22.76-39.83,36.51-66.89,36.51h-38.96c-9.41,0-18.18,4.8-23.25,12.73l-6.08,9.51h98.11c15.09,0,27.32,12.23,27.32,27.3Z"/>
      <path class="cls-5" d="M373.45,293.43c6.21-7.76,12.41-15.51,18.62-23.27,1.39,7.83,2.77,15.66,4.16,23.49l36.86.35-35.79,21.17c.5,10,.99,20,1.49,30-7.87-5.64-15.74-11.28-23.61-16.92-10.78,5.16-21.55,10.32-32.33,15.49,5.86-9.64,11.73-19.28,17.59-28.91l-23.85-21.72,36.86.35Z"/>
    </g>
    <g>
      <polygon class="cls-1" points="325.62 95.04 331.72 112.63 351.44 112.63 335.48 123.51 341.58 141.1 325.62 130.23 309.66 141.1 315.75 123.51 299.79 112.63 319.52 112.63 325.62 95.04"/>
      <polygon class="cls-1" points="254.73 108.57 259.03 121 272.96 121 261.69 128.68 266 141.1 254.73 133.42 243.46 141.1 247.76 128.68 236.49 121 250.42 121 254.73 108.57"/>
      <polygon class="cls-1" points="398.91 108.57 403.21 121 417.15 121 405.87 128.68 410.18 141.1 398.91 133.42 387.64 141.1 391.94 128.68 380.67 121 394.6 121 398.91 108.57"/>
      <polygon class="cls-1" points="458.83 119.21 461.73 127.57 471.1 127.57 463.52 132.74 466.41 141.1 458.83 135.93 451.24 141.1 454.14 132.74 446.55 127.57 455.93 127.57 458.83 119.21"/>
      <polygon class="cls-1" points="514.47 130.7 516.43 136.35 522.76 136.35 517.64 139.84 519.6 145.5 514.47 142 509.34 145.5 511.3 139.84 506.17 136.35 512.51 136.35 514.47 130.7"/>
      <polygon class="cls-1" points="193.87 119.21 190.97 127.57 181.59 127.57 189.18 132.74 186.28 141.1 193.87 135.93 201.46 141.1 198.56 132.74 206.14 127.57 196.77 127.57 193.87 119.21"/>
      <polygon class="cls-1" points="138.23 130.7 136.27 136.35 129.93 136.35 135.06 139.84 133.1 145.5 138.23 142 143.35 145.5 141.4 139.84 146.52 136.35 140.19 136.35 138.23 130.7"/>
    </g>
  </g>
  <path class="cls-5" d="M602.27,511.14H45.77c-4.81-10.26-9.82-23.42-13.15-39.09-3.7-17.39-4.21-32.68-3.67-44.59h590.15c.5,12.55-.18,28.6-4.28,46.8-3.28,14.54-7.95,26.93-12.54,36.89Z"/>
  <g>
    <path class="cls-3" d="M134.3,460.92v-4.21h-24.22v26.95h24.22v-8.34h-14.55v-9.16h28.43v18.61c0,4.73-3.11,9.38-11.52,9.38h-28.43c-7.82,0-11.94-3.77-11.94-10.04v-28.21c0-7.53,4.21-9.75,10.6-9.75h30.78c7.49,0,10.51,2.95,10.51,9.82v4.95h-13.88Z"/>
    <path class="cls-3" d="M160.03,494.14v-47.99h42.81c6.06,0,8.49,3.32,8.49,8.79v17.35c0,4.87-2.02,7.46-6.9,7.97l6.22,13.88h-14.13l-5.97-13.81h-16.4v13.81h-14.13ZM197.38,470.44v-13.59h-23.21v13.59h23.21Z"/>
    <path class="cls-3" d="M260.21,485.06h-22.62l-3.36,9.08h-14.47l18.42-47.99h21.53l18.25,47.99h-14.47l-3.28-9.08ZM241.12,475.46h15.56l-7.07-19.49h-1.35l-7.15,19.49Z"/>
    <path class="cls-3" d="M287.29,446.15h41.8c6.06,0,8.41,3.4,8.41,8.93v19.57c0,4.28-3.36,8.49-9.67,8.49h-26.41v11h-14.13v-47.99ZM323.54,473.32v-16.69h-22.12v16.69h22.12Z"/>
    <path class="cls-3" d="M348.27,446.15h14.13v19.2h25.06v-19.2h14.05v47.99h-14.05v-18.53h-25.06v18.53h-14.13v-47.99Z"/>
    <path class="cls-3" d="M414.46,446.15h14.13v47.99h-14.13v-47.99Z"/>
    <path class="cls-3" d="M493.19,474.8v9.97c0,4.73-3.03,9.38-11.44,9.38h-28.43c-7.82,0-11.94-3.77-11.94-10.04v-27.98c0-7.61,4.04-9.97,10.6-9.97h30.7c7.49,0,10.51,3.1,10.51,10.04v6.42h-13.96v-5.76h-23.89v26.58h23.89v-8.64h13.96Z"/>
    <path class="cls-3" d="M555.77,484.84c0,5.76-4.04,9.3-11.19,9.3h-29.77c-5.72,0-10.85-2.58-10.85-8.86v-8.12h13.96v7.01h23.89v-6.5l-31.46-6.87c-4.88-1.11-6.39-3.4-6.39-8.12v-8.86c0-5.46,3.7-7.68,9.76-7.68h31.79c8.41,0,10.26,3.84,10.26,10.04v6.05h-13.96v-6.13h-23.89v5.76l31.54,6.87c5.13,1.11,6.31,3.18,6.31,8.71v7.38Z"/>
  </g>
</svg>