<?xml version="1.0" encoding="UTF-8"?>
<svg id="Layer_1" data-name="Layer 1" xmlns="http://www.w3.org/2000/svg" viewBox="0 0 648 504">
  <defs>
    <style>
      .cls-1 {
        fill: #092f4d;
      }
    </style>
  </defs>
  <path class="cls-1" d="M555.93,282.11c14.4-34.38,12.91-65.55,10.95-81.59-1.89,29.46-9.64,51.93-17.19,67.74-18.35,38.44-48.28,64.39-79.51,81.91h31.51c15.96-11.73,39.77-33.45,54.24-68.06Z"/>
  <path class="cls-1" d="M566.85,200.57c-1.2,2.08-37.03,68.86-83.68,92.47-15.4,7.8-33.32,14.39-33.32,14.39-22.95,8.44-41.06,12.19-44.65,12.9-38.48,7.8-69.29,4.85-81.06,3.72-29.65-2.84-42.73-8.85-52.58-16.62-9.51-7.52-15.32-16.14-18.73-22.29-5.63,8.17-15.11,20-29.77,30.33-17.95,12.66-35.42,16.66-69.62,24.14-20.68,4.53-36.17,7.92-48.35,10.56h202.1c40.88-4.39,87.73-13.38,133.51-31.11,31.65-12.26,53.12-24.96,72.37-42.34,29.58-26.69,45.48-56.77,53.78-76.16Z"/>
  <path class="cls-1" d="M123.53,376.76h-32.46c-6.74,0-11.18,2.34-11.18,10.28v29.74c0,6.62,4.35,10.59,12.6,10.59h29.98c8.87,0,12.15-4.91,12.15-9.89v-19.62h-29.98v9.65h15.34v8.8h-25.54v-28.42h25.54v4.44h14.64v-5.21c0-7.25-3.2-10.36-11.09-10.36Z"/>
  <path class="cls-1" d="M192.26,376.76h-45.14v50.61h14.9v-14.56h17.29l6.3,14.56h14.9l-6.56-14.64c5.14-.54,7.27-3.27,7.27-8.41v-18.3c0-5.76-2.57-9.26-8.96-9.26ZM186.5,402.38h-24.48v-14.33h24.48v14.33Z"/>
  <path class="cls-1" d="M229.51,376.76l-19.42,50.61h15.25l3.55-9.58h23.86l3.46,9.58h15.26l-19.25-50.61h-22.71ZM232.62,407.67l7.53-20.55h1.42l7.45,20.55h-16.4Z"/>
  <path class="cls-1" d="M325.39,376.76h-44.09v50.61h14.9v-11.6h27.86c6.65,0,10.2-4.44,10.2-8.96v-20.63c0-5.84-2.49-9.42-8.87-9.42ZM319.53,405.41h-23.33v-17.59h23.33v17.59Z"/>
  <polygon class="cls-1" points="386.93 397 360.5 397 360.5 376.76 345.6 376.76 345.6 427.37 360.5 427.37 360.5 407.83 386.93 407.83 386.93 427.37 401.75 427.37 401.75 376.76 386.93 376.76 386.93 397"/>
  <rect class="cls-1" x="415.4" y="376.76" width="14.9" height="50.61"/>
  <path class="cls-1" d="M487.33,376.76h-32.38c-6.92,0-11.17,2.49-11.17,10.51v29.51c0,6.62,4.34,10.59,12.59,10.59h29.98c8.87,0,12.07-4.91,12.07-9.89v-10.51h-14.73v9.11h-25.19v-28.03h25.19v6.07h14.73v-6.77c0-7.32-3.2-10.59-11.09-10.59Z"/>
  <path class="cls-1" d="M553.58,376.76h-33.53c-6.39,0-10.29,2.34-10.29,8.1v9.34c0,4.98,1.6,7.4,6.74,8.57l33.17,7.24v6.85h-25.19v-7.4h-14.72v8.57c0,6.61,5.41,9.34,11.44,9.34h31.4c7.54,0,11.8-3.74,11.8-9.81v-7.79c0-5.84-1.25-8.02-6.65-9.18l-33.27-7.25v-6.07h25.19v6.46h14.73v-6.38c0-6.54-1.96-10.59-10.82-10.59Z"/>
  <path class="cls-1" d="M212.35,157.4l-115.22,179.22,103.72-28.66c5.75-1.59,10.7-5.24,13.93-10.25l99.48-154.76,42.64-66.32h-227.74l-42.64,66.32h195.44l-69.61,14.45Z"/>
  <path class="cls-1" d="M321.1,168.16c-13.53,26.33-27.07,52.66-40.61,79-1.24,2.42-2.26,4.95-3.05,7.55-.79,2.6-1.33,5.27-1.64,7.98-.55,4.88-.75,9.41-.75,13.54,0,17.23,13.98,31.2,31.21,31.2h56.16c29.91,0,71.66-12.12,105.93-31.73,34.26-19.6,61.05-46.68,61.05-76.59,0-17.09-13.87-30.95-30.97-30.95h-111.22l6.9-10.78c5.75-8.99,15.69-14.43,26.36-14.43h44.17c30.67,0,59.24-15.59,75.83-41.39l16.03-24.93h-149.32c-17.12,0-33.06,8.72-42.3,23.14l-27.65,43.18-16.13,25.21ZM375.8,218.41c7.04-8.79,14.07-17.59,21.11-26.38,1.57,8.87,3.14,17.75,4.71,26.62l41.78.4-40.57,23.99c.57,11.34,1.13,22.67,1.7,34.01-8.93-6.4-17.85-12.79-26.77-19.18-12.22,5.85-24.43,11.7-36.65,17.56,6.65-10.93,13.3-21.86,19.94-32.78l-27.03-24.63,41.78.39Z"/>
</svg>