<?xml version="1.0" encoding="UTF-8"?>
<svg id="Layer_1" data-name="Layer 1" xmlns="http://www.w3.org/2000/svg" viewBox="0 0 1368 288">
  <defs>
    <style>
      .cls-1 {
        fill: #fff;
      }
    </style>
  </defs>
  <path class="cls-1" d="M378.04,157.73c-.54,1.92-1.14,3.78-1.78,5.6-4.39,12.63-10.74,22.91-16.92,30.93-3.41,4.42-7.13,8.6-11.1,12.58-.02,0-.02.01-.02.01-8.61,8.62-18.44,16.25-29.12,23.02h27.08c5.81-5.6,11.21-11.86,15.9-18.81,10.93-16.2,14.82-31.57,15.76-43.89.26-3.39.3-6.56.2-9.44ZM384.4,181.29c-1.6,8.62-4.77,18.05-10.36,27.88-4.36,7.67-9.65,14.56-15.4,20.7h21.33c1.3-3.17,2.43-6.44,3.35-9.85,3.96-14.54,3.42-27.74,1.08-38.73ZM287.84,105.99h31.78c22.07,0,42.62-11.74,54.55-31.18l11.54-18.77h-106.45c-9.9,0-19.39,3.93-26.39,10.93h-.01s-69.34,131.58-69.34,131.58l-6.75,12.83c-4.43,8.4,1.66,18.49,11.15,18.49h58.14c21.54,0,51.57-9.13,76.23-23.9,24.65-14.76,43.92-35.16,43.92-57.68,0-12.88-9.97-23.31-22.28-23.31h-80.02l4.96-8.12c4.14-6.77,11.28-10.87,18.97-10.87ZM270.88,139.07c1.13,6.38,2.26,12.77,3.39,19.15l30.07.29-29.19,17.26c.4,8.16.81,16.31,1.21,24.47-6.42-4.6-12.83-9.2-19.25-13.8-8.79,4.21-17.58,8.42-26.37,12.63,4.78-7.86,9.56-15.72,14.35-23.58l-19.46-17.72,30.07.28c5.06-6.33,10.12-12.65,15.18-18.98ZM82.81,56.04l-30.68,47.72h140.62l-50.09,10.39-63.83,115.93h48.65c12.57,0,24.12-6.9,30.08-17.96l58.43-108.36,24.55-47.72H82.81ZM1315.87,161.99v-13.29c0-13.6-3.71-22.03-20.54-22.03h-63.62c-12.12,0-19.53,4.86-19.53,16.85v19.44c0,10.37,3.04,15.39,12.8,17.82l62.95,15.06v14.26h-47.81v-15.39h-27.94v17.82c0,13.77,10.27,19.44,21.72,19.44h59.58c14.31,0,22.39-7.78,22.39-20.41v-16.2c0-12.15-2.36-16.69-12.63-19.12l-63.12-15.06v-12.64h47.81v13.45h27.94ZM1190.64,162.8v-14.1c0-15.22-6.06-22.03-21.04-22.03h-61.44c-13.12,0-21.2,5.19-21.2,21.87v61.4c0,13.77,8.24,22.03,23.9,22.03h56.89c16.83,0,22.89-10.21,22.89-20.58v-21.86h-27.94v18.95h-47.8v-58.32h47.8v12.64h27.94ZM1033.09,126.67v105.3h28.28v-105.3h-28.28ZM979.06,126.67v42.12h-50.15v-42.12h-28.28v105.3h28.28v-40.66h50.15v40.66h28.11v-105.3h-28.11ZM862.25,126.67h-83.65v105.3h28.28v-24.14h52.85c12.62,0,19.35-9.23,19.35-18.63v-42.93c0-12.15-4.71-19.6-16.83-19.6ZM851.14,186.29h-44.26v-36.61h44.26v36.61ZM723.39,126.67h-43.09l-36.86,105.3h28.95l6.74-19.93h45.27l6.57,19.93h28.95l-36.53-105.3ZM686.19,190.98l14.31-42.76h2.69l14.14,42.76h-31.14ZM626.61,184.02v-38.07c0-11.99-4.89-19.28-17-19.28h-85.68v105.3h28.28v-30.29h32.82l11.95,30.29h28.28l-12.46-30.46c9.77-1.13,13.81-6.8,13.81-17.49ZM598.67,179.97h-46.46v-29.81h46.46v29.81ZM500.2,159.07v-10.85c0-15.07-6.06-21.55-21.04-21.55h-61.6c-12.79,0-21.21,4.86-21.21,21.39v61.88c0,13.77,8.25,22.03,23.9,22.03h56.89c16.83,0,23.06-10.21,23.06-20.58v-40.82h-56.89v20.09h29.12v18.31h-48.48v-59.13h48.48v9.23h27.77Z"/>
</svg>