<?xml version="1.0" encoding="UTF-8"?>
<svg id="Layer_1" data-name="Layer 1" xmlns="http://www.w3.org/2000/svg" viewBox="0 0 648 504">
  <defs>
    <style>
      .cls-1 {
        fill: #b32025;
      }

      .cls-2 {
        fill: #fff;
      }

      .cls-3 {
        fill: #092f4d;
      }
    </style>
  </defs>
  <g>
    <path class="cls-1" d="M555.93,282.11c-14.47,34.61-38.28,56.34-54.24,68.06h-31.51c31.23-17.52,61.16-43.48,79.51-81.91,7.54-15.82,15.29-38.28,17.19-67.74,1.97,16.05,3.45,47.21-10.95,81.59Z"/>
    <path class="cls-1" d="M566.85,200.57c-8.3,19.38-24.21,49.47-53.78,76.16-19.26,17.38-40.73,30.07-72.37,42.34-45.78,17.74-92.63,26.72-133.51,31.11H105.09c12.17-2.65,27.67-6.04,48.35-10.56,34.2-7.48,51.67-11.48,69.62-24.14,14.65-10.33,24.14-22.16,29.77-30.33,3.41,6.15,9.22,14.77,18.73,22.29,9.85,7.77,22.93,13.78,52.58,16.62,11.76,1.13,42.58,4.08,81.06-3.72,3.59-.72,21.7-4.46,44.65-12.9,0,0,17.93-6.59,33.32-14.39,46.65-23.62,82.48-90.39,83.68-92.47Z"/>
  </g>
  <g>
    <path class="cls-3" d="M119.98,392.33v-4.44h-25.55v28.42h25.55v-8.8h-15.34v-9.66h29.98v19.62c0,4.98-3.28,9.89-12.15,9.89h-29.98c-8.25,0-12.59-3.97-12.59-10.59v-29.74c0-7.94,4.43-10.28,11.18-10.28h32.46c7.89,0,11.09,3.12,11.09,10.36v5.22h-14.64Z"/>
    <path class="cls-3" d="M147.11,427.37v-50.61h45.15c6.38,0,8.96,3.5,8.96,9.27v18.3c0,5.14-2.13,7.86-7.27,8.41l6.56,14.64h-14.9l-6.3-14.56h-17.3v14.56h-14.9ZM186.5,402.38v-14.33h-24.48v14.33h24.48Z"/>
    <path class="cls-3" d="M252.75,417.79h-23.86l-3.55,9.58h-15.26l19.42-50.61h22.71l19.25,50.61h-15.26l-3.46-9.58ZM232.61,407.67h16.41l-7.45-20.56h-1.42l-7.54,20.56Z"/>
    <path class="cls-3" d="M281.3,376.76h44.08c6.38,0,8.87,3.58,8.87,9.42v20.63c0,4.52-3.55,8.96-10.2,8.96h-27.85v11.6h-14.9v-50.61ZM319.53,405.41v-17.6h-23.33v17.6h23.33Z"/>
    <path class="cls-3" d="M345.6,376.76h14.9v20.24h26.43v-20.24h14.81v50.61h-14.81v-19.54h-26.43v19.54h-14.9v-50.61Z"/>
    <path class="cls-3" d="M415.39,376.76h14.9v50.61h-14.9v-50.61Z"/>
    <path class="cls-3" d="M498.41,406.97v10.51c0,4.98-3.19,9.89-12.06,9.89h-29.98c-8.25,0-12.59-3.97-12.59-10.59v-29.51c0-8.02,4.25-10.51,11.18-10.51h32.37c7.89,0,11.09,3.27,11.09,10.59v6.77h-14.73v-6.07h-25.19v28.03h25.19v-9.11h14.73Z"/>
    <path class="cls-3" d="M564.39,417.56c0,6.07-4.26,9.81-11.8,9.81h-31.4c-6.03,0-11.44-2.73-11.44-9.34v-8.57h14.73v7.4h25.19v-6.85l-33.18-7.24c-5.14-1.17-6.74-3.58-6.74-8.57v-9.34c0-5.76,3.9-8.1,10.29-8.1h33.53c8.87,0,10.82,4.05,10.82,10.59v6.38h-14.72v-6.46h-25.19v6.07l33.26,7.24c5.41,1.17,6.65,3.35,6.65,9.19v7.79Z"/>
  </g>
  <g>
    <path class="cls-3" d="M356.9,76.63l-42.64,66.32-99.48,154.76c-3.22,5.01-8.18,8.66-13.93,10.25l-103.72,28.66,115.22-179.22,69.61-14.45H86.51l42.64-66.32h227.74Z"/>
    <path class="cls-3" d="M529.39,199.11c0,29.92-26.79,57-61.04,76.59-34.28,19.61-76.02,31.73-105.94,31.73h-56.16c-17.23,0-31.2-13.97-31.2-31.2h0c0-4.12.2-8.66.75-13.54h0c.61-5.42,2.2-10.68,4.69-15.53,13.54-26.33,27.07-52.67,40.61-79l16.13-25.2,27.65-43.18c9.23-14.42,25.17-23.14,42.3-23.14h149.32l-16.03,24.93c-16.59,25.8-45.16,41.39-75.83,41.39h-44.17c-10.67,0-20.61,5.44-26.36,14.43l-6.9,10.78h111.22c17.11,0,30.97,13.86,30.97,30.95Z"/>
    <path class="cls-2" d="M375.8,218.41c7.04-8.79,14.07-17.59,21.11-26.38,1.57,8.87,3.14,17.75,4.72,26.62l41.78.39-40.57,23.99c.56,11.34,1.13,22.67,1.69,34.01-8.92-6.39-17.84-12.79-26.76-19.18-12.22,5.85-24.44,11.7-36.65,17.56,6.65-10.93,13.3-21.85,19.94-32.78l-27.03-24.63,41.78.39Z"/>
  </g>
</svg>