<?xml version="1.0" encoding="UTF-8"?>
<svg id="Layer_1" data-name="Layer 1" xmlns="http://www.w3.org/2000/svg" viewBox="0 0 648 504">
  <defs>
    <style>
      .cls-1 {
        fill: #fff;
      }
    </style>
  </defs>
  <path class="cls-1" d="M593.35,237.38c-2.15,33.14-10.84,58.38-19.34,76.18-20.7,43.4-54.56,72.64-89.82,92.34h35.49c17.94-13.1,44.96-37.59,61.36-76.77,16.16-38.67,14.51-73.69,12.3-91.75Z"/>
  <path class="cls-1" d="M593.31,237.44c-1.36,2.35-41.61,77.42-94.07,103.96-17.31,8.78-37.47,16.19-37.47,16.19-25.79,9.48-46.16,13.69-50.21,14.5-43.25,8.77-77.9,5.46-91.12,4.19-33.33-3.18-48.05-9.96-59.11-18.69-10.7-8.46-17.24-18.16-21.07-25.06-6.31,9.16-16.98,22.48-33.45,34.08-20.2,14.24-39.83,18.75-78.29,27.14-23.93,5.24-41.67,9.12-55.52,12.14h225.94c46.53-4.83,100.15-14.93,152.54-35.23,35.6-13.79,59.72-28.04,81.38-47.6,33.25-30.02,51.12-63.82,60.47-85.62Z"/>
  <path class="cls-1" d="M65.2,390.41l116.61-32.23c6.46-1.78,12.03-5.89,15.66-11.53l111.85-173.99,47.95-74.57H101.22l-47.95,74.57h219.73l-78.26,16.25-129.55,201.5Z"/>
  <path class="cls-1" d="M317.02,201c-15.22,29.61-30.44,59.22-45.66,88.82-1.4,2.73-2.55,5.57-3.43,8.49-.89,2.93-1.51,5.93-1.85,8.98-.61,5.48-.84,10.58-.84,15.22,0,19.37,15.71,35.08,35.09,35.08h63.14c33.63,0,80.56-13.63,119.1-35.68,38.51-22.03,68.63-52.47,68.63-86.11,0-19.21-15.58-34.8-34.82-34.8h-125.04l7.76-12.11c6.46-10.11,17.63-16.22,29.63-16.22h49.66c34.49,0,66.61-17.54,85.26-46.54l18.02-28.03h-167.88c-19.25,0-37.17,9.81-47.55,26.02l-31.09,48.55-18.13,28.33ZM378.51,257.51c7.91-9.89,15.82-19.78,23.73-29.67,1.77,9.98,3.54,19.96,5.3,29.94l46.98.44-45.61,26.97c.63,12.75,1.26,25.49,1.9,38.24-10.03-7.19-20.06-14.38-30.09-21.56-13.74,6.58-27.47,13.16-41.21,19.74,7.47-12.29,14.95-24.57,22.42-36.86l-30.39-27.69,46.97.45Z"/>
</svg>