<?xml version="1.0" encoding="UTF-8"?>
<svg id="Layer_1" data-name="Layer 1" xmlns="http://www.w3.org/2000/svg" viewBox="0 0 648 720">
  <defs>
    <style>
      .cls-1 {
        fill: #fff;
      }
    </style>
  </defs>
  <path class="cls-1" d="M502.57,570.22c-51.87,41.56-109.86,74.56-172.33,98.08l-4.23,1.59-4.24-1.59c-62.48-23.52-120.46-56.52-172.34-98.08-18.46-14.78-36.22-30.74-53.05-47.66h-17.6c19.73,20.57,40.77,39.84,62.8,57.48,52.91,42.38,112.04,76.04,175.76,100.03l8.67,3.26,8.66-3.26c63.72-23.99,122.85-57.65,175.76-100.03,22.03-17.64,43.07-36.91,62.79-57.48h-17.59c-16.84,16.92-34.6,32.88-53.06,47.66Z"/>
  <polygon class="cls-1" points="67.65 108.07 325.69 49.57 326.01 49.64 326.32 49.57 584.37 108.07 584.37 416.05 596.94 416.05 596.94 98.02 577.79 93.69 454.77 65.79 331.76 37.91 326.32 36.68 326 36.74 325.69 36.68 320.25 37.91 184.72 68.64 74.22 93.69 55.07 98.02 55.07 416.05 67.65 416.05 67.65 108.07"/>
  <path class="cls-1" d="M349.03,522.62c.1-.02.19-.04.29-.07h-13.93c-11.35-.07-27.77-.18-40.8,0h-13.45c-.92.18-1.85.36-2.77.55-2.78.22-4.47.5-4.63.86-2.95.64-5.9,1.29-8.85,1.96-16.19,3.54-32.28,7.57-48.26,11.93-12.04,3.23-24.03,6.66-35.97,10.28-5.83-4.64-10.56-8.71-13.92-11.67-2.29-2.1-4.61-4.3-6.94-6.63-2.44-2.45-4.74-4.88-6.92-7.28h-39.41c13.13,12.69,27.59,25.57,43.48,38.29,61.62,49.37,122.2,78.58,169.06,96.21,46.85-17.63,107.43-46.84,169.05-96.21,15.54-12.43,29.71-25.02,42.6-37.43.3-.28.59-.56.88-.86-13.83,2.18-28.22,5.1-43.06,8.95-78.24,20.28-138.33,58.41-180.48,92.65-8.09-2.93-16.46-6.28-25.04-10.13-2.72-1.22-5.39-2.46-8-3.71,1.75-1.42,3.61-2.87,5.55-4.35,1.12-.85,2.28-1.71,3.46-2.57,2.24-1.65,4.59-3.31,7.03-5,1.48-1.02,2.99-2.04,4.54-3.08,9.4-6.27,20.04-12.77,31.51-19.22,1.87-1.05,3.77-2.11,5.69-3.16.03-.02.07-.03.1-.05,2.42-1.33,4.87-2.65,7.35-3.96,2.48-1.32,4.99-2.63,7.52-3.92,2.08-1.07,4.18-2.13,6.3-3.18,4.09-2.04,8.24-4.05,12.43-6.03,2.17-1.02,4.35-2.03,6.54-3.03,1.07-.49,2.14-.98,3.21-1.46,1.07-.48,2.15-.96,3.22-1.44,1.88-.83,3.77-1.65,5.65-2.46,1.37-.6,2.75-1.18,4.13-1.76,2.08-.88,4.16-1.75,6.24-2.59,6.57-2.68,13.15-5.21,19.68-7.56,2.08-.75,4.15-1.47,6.21-2.18,6.43-2.21,12.78-4.22,19.02-6.01,2.34-.67,4.67-1.31,6.97-1.92,1.52-.4,3.02-.77,4.52-1.14.7-.17,1.4-.35,2.1-.51,1.58-.38,3.17-.75,4.74-1.1h-.07s.03-.01.04-.01h.04c.09-.02.18-.04.27-.07h-71.69c-1.46.4-2.93.81-4.39,1.23-.07.02-.13.04-.2.06-.52.15-1.04.3-1.56.46-.46.14-.93.27-1.4.41-.59.17-1.19.36-1.79.54-.05.02-.11.03-.16.05-.11.03-.22.07-.33.1-.05.01-.1.03-.15.05-.25.07-.51.16-.77.24-.11.03-.22.07-.33.1-.17.05-.33.11-.5.16-.02.01-.05.02-.07.02-.31.1-.61.19-.92.29-.35.11-.7.22-1.05.34-1.12.36-2.24.73-3.36,1.1-.19.07-.38.13-.57.19-.85.29-1.7.57-2.55.86-.97.33-1.94.67-2.91,1.01-1.13.39-2.25.79-3.37,1.2-17.21,6.23-34.09,13.83-49.83,22-5.25,2.72-10.37,5.5-15.33,8.31-4.5,2.54-8.86,5.11-13.07,7.68-.87.53-1.73,1.06-2.59,1.59-.75.47-1.49.93-2.23,1.39-.33.21-.65.42-.98.62-.86.55-1.72,1.09-2.57,1.64-.04.03-.09.06-.14.09-.22.14-.46.28-.68.43-.44.28-.87.57-1.31.85-.57.37-1.15.75-1.72,1.12-.4.27-.81.53-1.21.8-.43.28-.85.57-1.28.85-.57.38-1.13.76-1.69,1.14-.19.13-.38.25-.57.38-.18.13-.37.25-.56.38-.02.02-.05.03-.07.05-.47.32-.93.63-1.39.95-.4.28-.81.56-1.21.84-.17.12-.34.23-.51.36-.26.17-.53.35-.78.53-.64.45-1.29.9-1.92,1.35-.63.45-1.26.9-1.88,1.35-.17.12-.33.24-.49.36-.01,0-.01.01-.02.01-.3.21-.59.42-.88.63-.04.03-.08.07-.13.1-.28.2-.56.41-.84.62-1.04.76-2.06,1.51-3.06,2.26-.07.06-.14.11-.22.17-1.08.82-2.14,1.63-3.18,2.43-.63.49-1.26.98-1.87,1.46-.49.39-.97.78-1.45,1.16-9.79-5.61-18.96-11.34-28.52-17.3-2.27-1.42-4.43-2.78-6.49-4.08,15.49-8.75,32.77-17.12,50.81-24.65,2.06-.86,4.13-1.71,6.2-2.54h.01c2.08-.84,4.16-1.67,6.25-2.48,11.5-4.47,23.21-8.58,34.87-12.2,2.6-.81,5.2-1.6,7.79-2.36,4.36-1.27,8.7-2.47,13.01-3.6,2.07-.54,4.13-1.06,6.18-1.57,2.05-.5,4.09-.99,6.13-1.45h-.04s.03-.01.04-.01h.57Z"/>
  <path class="cls-1" d="M475.08,416.05h97.27V117.66c-82.01-18.59-164.01-37.18-246.03-55.77l-.31.07-.32-.07c-82.01,18.59-164.02,37.18-246.03,55.77v298.4h30.58c-1.09-.11-2.18-.24-3.28-.35,13.28-2.88,31.36-6.83,70.34-15.35,30.18-6.61,45.59-10.14,61.43-21.31,12.92-9.1,21.29-19.54,26.25-26.75,3.01,5.43,8.14,13.03,16.53,19.67,8.68,6.85,20.22,12.15,46.39,14.66,10.37.99,37.55,3.59,71.49-3.28,3.17-.64,19.15-3.95,39.39-11.38,0,0,15.81-5.82,29.4-12.7,41.14-20.83,72.76-79.74,73.81-81.57-.03.09-.06.16-.1.25-7.36,17.12-21.38,43.5-47.35,66.93-17.35,15.65-36.55,26.7-63.84,37.35-63.74,24.86-132.28,31.88-176.71,33.83h190.42c31.78-15.29,63.86-39.71,82.44-78.65,6.65-13.96,13.49-33.76,15.16-59.76,1.74,14.16,3.04,41.65-9.65,71.98-16.15,38.6-45.46,59.03-57.28,66.43ZM512.51,136.35l1.96-5.65,1.96,5.65h6.34l-5.13,3.49,1.96,5.65-5.13-3.49-5.12,3.49,1.95-5.65-5.12-3.49h6.33ZM455.93,127.57l2.9-8.37,2.9,8.37h9.38l-7.59,5.17,2.9,8.36-7.59-5.17-7.59,5.17,2.9-8.36-7.58-5.17h9.37ZM394.61,121.01l4.3-12.43,4.31,12.43h13.93l-11.27,7.67,4.3,12.43-11.27-7.68-11.27,7.68,4.31-12.43-11.27-7.67h13.93ZM319.53,112.64l6.09-17.59,6.1,17.59h19.73l-15.96,10.87,6.09,17.6-15.96-10.87-15.96,10.87,6.1-17.6-15.96-10.87h19.73ZM250.43,121.01l4.3-12.43,4.31,12.43h13.93l-11.27,7.67,4.3,12.43-11.27-7.68-11.27,7.68,4.3-12.43-11.27-7.67h13.94ZM190.97,127.57l2.9-8.37,2.9,8.37h9.38l-7.59,5.17,2.9,8.36-7.59-5.17-7.58,5.17,2.89-8.36-7.58-5.17h9.37ZM136.27,136.35l1.96-5.65,1.96,5.65h6.34l-5.13,3.49,1.96,5.65-5.13-3.49-5.13,3.49,1.96-5.65-5.12-3.49h6.33ZM231.41,363.39c-2.84,4.42-7.21,7.64-12.28,9.04l-91.5,25.29,101.65-158.1,61.4-12.74H118.28l37.61-58.51h200.9l-37.62,58.51-87.76,136.51ZM518.72,190.35c-14.64,22.76-39.84,36.52-66.89,36.52h-38.97c-9.41,0-18.18,4.79-23.25,12.72l-6.09,9.51h98.11c15.09,0,27.32,12.23,27.32,27.3,0,26.39-23.63,50.28-53.85,67.56-30.23,17.3-67.06,28-93.45,28h-49.54c-15.2,0-27.52-12.33-27.52-27.53v-.29c0-3.56.18-7.46.66-11.65.27-2.39.75-4.74,1.44-7.04.7-2.29,1.6-4.52,2.7-6.66,11.94-23.23,23.88-46.46,35.82-69.69l14.23-22.23,24.39-38.1c8.14-12.71,22.21-20.41,37.31-20.41h131.71l-14.13,21.99Z"/>
  <path class="cls-1" d="M336.6,293.09l23.85,21.73c-5.86,9.64-11.73,19.28-17.59,28.91,10.77-5.16,21.55-10.32,32.33-15.48,7.87,5.64,15.74,11.27,23.61,16.91-.5-10-1-20-1.49-29.99l35.78-21.17-36.85-.35c-1.39-7.82-2.78-15.65-4.16-23.48-6.21,7.76-12.42,15.51-18.62,23.27l-36.86-.35Z"/>
  <rect class="cls-1" x="174.17" y="456.85" width="23.21" height="13.59"/>
  <polygon class="cls-1" points="248.27 455.98 241.12 475.47 256.68 475.47 249.62 455.98 248.27 455.98"/>
  <path class="cls-1" d="M619.1,427.47H28.95c-.54,11.92-.02,27.21,3.67,44.59,3.33,15.67,8.35,28.83,13.16,39.09h556.49c4.6-9.95,9.27-22.34,12.55-36.89,4.1-18.19,4.77-34.24,4.28-46.79ZM148.18,460.92h-13.88v-4.21h-24.22v26.96h24.22v-8.35h-14.55v-9.15h28.43v18.6c0,4.73-3.11,9.38-11.53,9.38h-28.42c-7.83,0-11.95-3.77-11.95-10.04v-28.21c0-7.53,4.21-9.74,10.6-9.74h30.78c7.49,0,10.52,2.95,10.52,9.82v4.94ZM211.34,472.29c0,4.88-2.01,7.46-6.89,7.98l6.22,13.88h-14.13l-5.97-13.81h-16.4v13.81h-14.13v-47.99h42.81c6.05,0,8.49,3.32,8.49,8.78v17.35ZM263.49,494.15l-3.28-9.08h-22.62l-3.37,9.08h-14.46l18.42-47.99h21.53l18.25,47.99h-14.47ZM337.51,474.66c0,4.28-3.37,8.49-9.67,8.49h-26.41v11h-14.13v-47.99h41.8c6.05,0,8.41,3.39,8.41,8.93v19.57ZM401.52,494.15h-14.05v-18.53h-25.06v18.53h-14.13v-47.99h14.13v19.19h25.06v-19.19h14.05v47.99ZM428.6,494.15h-14.13v-47.99h14.13v47.99ZM493.19,462.61h-13.96v-5.76h-23.88v26.58h23.88v-8.64h13.96v9.97c0,4.73-3.02,9.38-11.43,9.38h-28.43c-7.83,0-11.95-3.77-11.95-10.04v-27.99c0-7.6,4.04-9.96,10.6-9.96h30.7c7.49,0,10.51,3.1,10.51,10.04v6.42ZM555.77,462.25h-13.96v-6.13h-23.89v5.76l31.54,6.87c5.13,1.11,6.31,3.18,6.31,8.71v7.39c0,5.76-4.04,9.3-11.19,9.3h-29.77c-5.72,0-10.85-2.58-10.85-8.86v-8.12h13.96v7.01h23.89v-6.5l-31.46-6.86c-4.88-1.11-6.39-3.4-6.39-8.12v-8.87c0-5.46,3.7-7.67,9.76-7.67h31.79c8.41,0,10.26,3.84,10.26,10.04v6.05Z"/>
  <rect class="cls-1" x="301.43" y="456.64" width="22.12" height="16.69"/>
</svg>