<?xml version="1.0" encoding="UTF-8"?>
<svg id="Layer_1" data-name="Layer 1" xmlns="http://www.w3.org/2000/svg" viewBox="0 0 648 504">
  <defs>
    <style>
      .cls-1 {
        fill: #b32025;
      }

      .cls-2 {
        fill: #fff;
      }

      .cls-3 {
        fill: #092f4d;
      }
    </style>
  </defs>
  <g>
    <path class="cls-1" d="M581.04,329.13c-16.4,39.18-43.42,63.67-61.36,76.77h-35.49c35.26-19.7,69.12-48.94,89.82-92.34,8.5-17.8,17.19-43.04,19.34-76.18,2.2,18.06,3.86,53.08-12.3,91.75Z"/>
    <path class="cls-1" d="M593.31,237.44c-9.34,21.8-27.22,55.61-60.47,85.62-21.66,19.56-45.78,33.81-81.38,47.6-52.39,20.3-106,30.4-152.54,35.23H72.99c13.85-3.01,31.59-6.9,55.52-12.14,38.46-8.39,58.1-12.91,78.29-27.14,16.47-11.6,27.14-24.91,33.45-34.08,3.83,6.9,10.37,16.6,21.07,25.06,11.06,8.73,25.77,15.51,59.11,18.69,13.23,1.27,47.87,4.58,91.12-4.19,4.05-.81,24.43-5.01,50.21-14.5,0,0,20.16-7.41,37.47-16.19,52.46-26.54,92.71-101.62,94.07-103.96Z"/>
  </g>
  <g>
    <path class="cls-3" d="M357.26,98.1l-47.95,74.57-111.85,173.99c-3.62,5.64-9.2,9.74-15.66,11.53l-116.61,32.23,129.55-201.5,78.26-16.25H53.27l47.95-74.57h256.05Z"/>
    <path class="cls-3" d="M551.2,235.8c0,33.63-30.12,64.08-68.63,86.11-38.54,22.05-85.47,35.68-119.1,35.68h-63.14c-19.38,0-35.08-15.71-35.08-35.08h0c0-4.63.22-9.74.84-15.22h0c.69-6.09,2.47-12.01,5.28-17.46,15.22-29.61,30.44-59.21,45.66-88.82l18.14-28.34,31.09-48.55c10.38-16.21,28.3-26.02,47.55-26.02h167.88l-18.02,28.03c-18.65,29.01-50.77,46.54-85.25,46.54h-49.66c-12,0-23.17,6.11-29.64,16.22l-7.76,12.12h125.04c19.24,0,34.82,15.59,34.82,34.8Z"/>
    <path class="cls-2" d="M378.51,257.51c7.91-9.89,15.82-19.77,23.73-29.66,1.77,9.98,3.54,19.96,5.3,29.93l46.97.44-45.61,26.98c.63,12.74,1.27,25.49,1.9,38.23-10.03-7.19-20.06-14.37-30.09-21.56-13.74,6.58-27.47,13.16-41.21,19.74,7.47-12.28,14.95-24.57,22.42-36.85l-30.4-27.69,46.97.44Z"/>
  </g>
</svg>